<svg width="300" height="60" xmlns="http://www.w3.org/2000/svg">
  <defs>
    <linearGradient id="sparkGradient" x1="0%" y1="0%" x2="100%" y2="0%">
      <stop offset="0%" style="stop-color:#667eea;stop-opacity:1" />
      <stop offset="100%" style="stop-color:#764ba2;stop-opacity:1" />
    </linearGradient>
    <filter id="glow">
      <feGaussianBlur stdDeviation="2" result="coloredBlur"/>
      <feMerge>
        <feMergeNode in="coloredBlur"/>
        <feMergeNode in="SourceGraphic"/>
      </feMerge>
    </filter>
  </defs>
  <polyline
    fill="none"
    stroke="url(#sparkGradient)"
    stroke-width="2.5"
    points="0.00,5.00 10.34,47.50 20.69,55.00 31.03,35.00 41.38,37.50 51.72,37.50 62.07,45.00 72.41,47.50 82.76,12.50 93.10,50.00 103.45,10.00 113.79,22.50 124.14,52.50 134.48,55.00 144.83,50.00 155.17,40.00 165.52,37.50 175.86,15.00 186.21,7.50 196.55,55.00 206.90,12.50 217.24,40.00 227.59,5.00 237.93,12.50 248.28,22.50 258.62,37.50 268.97,20.00 279.31,10.00 289.66,35.00 300.00,55.00"
    filter="url(#glow)"
  />
  <polyline
    fill="none"
    stroke="rgba(102, 126, 234, 0.2)"
    stroke-width="1"
    points="0.00,5.00 10.34,47.50 20.69,55.00 31.03,35.00 41.38,37.50 51.72,37.50 62.07,45.00 72.41,47.50 82.76,12.50 93.10,50.00 103.45,10.00 113.79,22.50 124.14,52.50 134.48,55.00 144.83,50.00 155.17,40.00 165.52,37.50 175.86,15.00 186.21,7.50 196.55,55.00 206.90,12.50 217.24,40.00 227.59,5.00 237.93,12.50 248.28,22.50 258.62,37.50 268.97,20.00 279.31,10.00 289.66,35.00 300.00,55.00"
    transform="translate(0, 2)"
  />
</svg>